<?xml version="1.0" encoding="UTF-8" standalone="no"?>
<!-- Created with Inkscape (http://www.inkscape.org/) -->

<svg
   width="512"
   height="512"
   viewBox="0 0 512 512"
   version="1.1"
   id="svg1"
   inkscape:version="1.4.4 (dcaf3e7d9e, 2026-05-05)"
   sodipodi:docname="blue_player.svg"
   inkscape:export-filename="blue_player.png"
   inkscape:export-xdpi="96"
   inkscape:export-ydpi="96"
   xmlns:inkscape="http://www.inkscape.org/namespaces/inkscape"
   xmlns:sodipodi="http://sodipodi.sourceforge.net/DTD/sodipodi-0.dtd"
   xmlns:xlink="http://www.w3.org/1999/xlink"
   xmlns="http://www.w3.org/2000/svg"
   xmlns:svg="http://www.w3.org/2000/svg">
  <sodipodi:namedview
     id="namedview1"
     pagecolor="#ffffff"
     bordercolor="#000000"
     borderopacity="0.25"
     inkscape:showpageshadow="2"
     inkscape:pageopacity="0.0"
     inkscape:pagecheckerboard="0"
     inkscape:deskcolor="#d1d1d1"
     inkscape:document-units="px"
     inkscape:zoom="1.6034199"
     inkscape:cx="246.66028"
     inkscape:cy="275.34896"
     inkscape:window-width="1985"
     inkscape:window-height="1258"
     inkscape:window-x="0"
     inkscape:window-y="0"
     inkscape:window-maximized="0"
     inkscape:current-layer="layer1" />
  <defs
     id="defs1">
    <linearGradient
       id="linearGradient2"
       inkscape:collect="always">
      <stop
         style="stop-color:#f9f9ff;stop-opacity:0.61014158;"
         offset="0"
         id="stop2" />
      <stop
         style="stop-color:#7fa8ff;stop-opacity:0.39301914;"
         offset="0.81473941"
         id="stop4" />
      <stop
         style="stop-color:#0000ff;stop-opacity:0.68486434;"
         offset="1"
         id="stop3" />
    </linearGradient>
    <radialGradient
       inkscape:collect="always"
       xlink:href="#linearGradient2"
       id="radialGradient3"
       cx="255.99863"
       cy="255.99757"
       fx="255.99863"
       fy="255.99757"
       r="239.96034"
       gradientTransform="matrix(1.2207798,-0.00726633,0.00649427,1.0910747,-58.181856,-21.454718)"
       gradientUnits="userSpaceOnUse" />
  </defs>
  <g
     inkscape:label="Layer 1"
     inkscape:groupmode="layer"
     id="layer1">
    <circle
       style="fill:#1a1a1a;stroke:#000000"
       id="path1"
       cx="256"
       cy="256"
       r="256" />
    <path
       id="circle1"
       style="fill:#0000ff;stroke:none"
       d="m 253.10547,10.037109 c -4.82499,0.0653 -9.61767,0.261271 -14.46247,0.607259 -11.86764,0.840254 -23.89648,2.575395 -35.52098,5.138698 -4.35964,0.953117 -8.72436,2.053502 -12.96212,3.227656 -9.7252,2.689719 -19.27793,5.998477 -28.59545,9.870137 -20.59557,8.565447 -40.18691,20.033368 -57.75921,33.893219 -26.899472,21.154269 -49.288603,48.005692 -65.257775,78.272562 -3.417399,6.46245 -6.544597,13.07806 -9.369731,19.82055 -5.459784,13.01966 -9.857156,26.68873 -13.007513,40.52557 -0.563912,2.4427 -1.080135,4.91841 -1.545221,7.25177 -0.736636,3.82932 -1.385462,7.55083 -1.957031,11.40625 -1.493798,10.14425 -2.371497,20.598 -2.581823,30.84608 -0.1122974,5.27324 -0.04264,10.56447 0.179479,15.78087 1.269699,29.44059 7.882579,58.6413 19.457836,85.74236 3.076928,7.23708 6.517924,14.31782 10.266773,21.2303 0.791415,1.44314 1.69515,3.07662 2.55899,4.57603 7.192341,12.57444 15.514632,24.49941 24.802338,35.61538 0.731837,0.851 1.602694,1.90361 2.344746,2.75756 2.257959,2.61706 4.589891,5.21324 6.90997,7.68031 6.98097,7.45828 14.525438,14.52556 22.335128,21.00939 13.923864,11.56819 29.142014,21.57171 45.261714,29.80664 0.95932,0.47505 2.11127,1.07099 3.07823,1.54256 4.97285,2.45604 10.03355,4.73191 15.16006,6.84807 1.64887,0.67634 3.50413,1.41257 5.24244,2.08622 11.70809,4.49863 23.75987,8.101 36.01537,10.76925 3.10579,0.67585 6.40451,1.32846 9.53404,1.87874 5.95991,1.05535 11.87931,1.877 17.91872,2.49449 3.38693,0.3438 6.77157,0.61475 10.08825,0.81817 5.89059,0.34756 11.82924,0.49226 17.80192,0.41713 14.29997,-0.18291 28.7201,-1.62346 42.83197,-4.29873 3.17266,-0.60309 6.21167,-1.23991 9.3896,-1.97478 27.5573,-6.32492 54.13864,-17.55039 77.95014,-32.90879 19.61137,-12.6178 37.3993,-28.06108 52.66895,-45.68405 0.98298,-1.14699 2.12048,-2.4637 3.13672,-3.69861 17.31114,-20.76466 31.14366,-44.41313 40.77711,-69.67191 5.09488,-13.35181 9.02813,-27.14754 11.73461,-41.18026 1.10766,-5.74843 2.04864,-11.77876 2.74414,-17.69531 0.25764,-2.28537 0.52945,-4.75551 0.73284,-7.11865 0.35937,-4.04554 0.61608,-8.11683 0.77466,-12.22444 1.01673,-26.41709 -2.25011,-53.17175 -9.72622,-78.60181 -4.25998,-14.55101 -9.87567,-28.70269 -16.72855,-42.22697 -0.65101,-1.25696 -1.39141,-2.7296 -2.10675,-4.05544 -7.19468,-13.57356 -15.69229,-26.45073 -25.28973,-38.44456 -0.77116,-0.9481 -1.69643,-2.09392 -2.53677,-3.11052 C 434.29641,85.67826 421.77614,73.485512 408.125,62.726562 407.28461,62.070433 406.22819,61.255997 405.30478,60.539029 385.43593,45.339262 363.22324,33.218818 339.69922,24.710938 324.27935,19.141541 308.17351,15.048977 291.89699,12.662181 c -4.10649,-0.60334 -8.29457,-1.115152 -12.4922,-1.513697 -2.12379,-0.205582 -4.20142,-0.375993 -6.37377,-0.523696 -3.42711,-0.246527 -7.10074,-0.413606 -10.52516,-0.509554 -3.1329,-0.07577 -6.26665,-0.104009 -9.40039,-0.07813 z" />
    <path
       id="path2"
       style="fill:url(#radialGradient3);stroke:none;fill-opacity:1"
       d="m 253.06836,16.048828 c -5.00042,0.07141 -10.11647,0.288047 -15.06641,0.660156 -5.7837,0.441105 -11.557,1.082298 -17.24739,1.931064 -6.03094,0.893088 -11.92244,1.998396 -17.85677,3.346791 -7.68065,1.738391 -15.43263,3.897966 -22.89984,6.400448 -20.1046,6.717193 -39.31273,16.107369 -56.96084,27.849041 -22.01899,14.665345 -41.749239,33.089228 -57.813034,54.200732 -7.416731,9.72026 -14.041451,19.92849 -19.898741,30.67421 -1.077924,1.98468 -2.230068,4.15706 -3.282325,6.24358 -5.165264,10.16942 -9.595257,20.71029 -13.273479,31.50648 -0.323059,0.9924 -0.750452,2.23726 -1.074299,3.24378 -1.376098,4.24685 -2.643862,8.57447 -3.761714,12.82828 -1.57074,5.94661 -2.926773,12.08085 -4.011643,18.05294 -4.255047,23.32614 -5.016702,47.28131 -2.269531,70.83203 0.469428,4.02158 1.063074,8.21732 1.75,12.28125 2.023552,11.93541 5.019056,23.96077 8.83575,35.45632 1.857282,5.59132 3.912995,11.10785 6.15651,16.50858 5.428901,13.06589 12.085739,25.79422 19.777335,37.74373 13.067676,20.34423 29.366711,38.83218 47.999701,54.36 17.61845,14.72938 37.36566,26.90813 58.44164,36.02903 1.11604,0.47347 2.45692,1.05436 3.66827,1.55158 6.51597,2.69617 13.24106,5.13345 19.91181,7.22771 9.41745,2.94862 19.07175,5.3366 28.82617,7.11328 3.91739,0.71041 8.099,1.37014 12.0551,1.87612 5.23708,0.68859 10.6312,1.19097 15.81795,1.52623 9.87241,0.62105 19.78208,0.62019 29.65625,0.0371 1.94704,-0.12346 4.08913,-0.30096 6.11024,-0.46322 2.82201,-0.23611 5.50582,-0.52887 8.29601,-0.85514 1.16718,-0.15842 2.58709,-0.32444 3.85045,-0.50427 20.47215,-2.81439 40.76005,-8.34438 59.89903,-16.36944 30.02973,-12.5571 57.42856,-31.33393 80.02328,-54.75977 22.224,-23.00444 39.74556,-50.52104 51.21812,-80.37776 1.72705,-4.47473 3.33267,-9.06632 4.76327,-13.56812 4.32194,-13.59557 7.42285,-27.5785 9.26147,-41.72533 0.16615,-1.37829 0.37729,-2.9887 0.52966,-4.46089 0.58248,-5.25431 0.98252,-10.52796 1.2262,-15.80864 0.0517,-1.41096 0.12933,-3.05809 0.15713,-4.561 0.10932,-4.22214 0.0942,-8.58077 -0.0106,-12.7183 -0.24385,-8.71622 -0.96615,-17.41744 -2.14649,-26.05664 -0.27314,-1.92332 -0.58362,-4.04504 -0.91094,-6.03805 -3.87359,-23.7052 -11.33765,-46.81914 -22.05,-68.31742 -0.74312,-1.46446 -1.58032,-3.12808 -2.38966,-4.65312 -5.73026,-10.90549 -12.31376,-21.36099 -19.64744,-31.25899 -2.34982,-3.16018 -4.90562,-6.44331 -7.47516,-9.55917 -6.94114,-8.447411 -14.54754,-16.47888 -22.53852,-23.845124 -14.76951,-13.610681 -31.23102,-25.387928 -48.92382,-34.898437 -1.46918,-0.776099 -3.13014,-1.661452 -4.68791,-2.450406 -5.42856,-2.77398 -11.15466,-5.4324 -16.86103,-7.806062 -2.8397,-1.186712 -5.69724,-2.314119 -8.52648,-3.364723 -5.12345,-1.913896 -10.43224,-3.675499 -15.60232,-5.21084 -9.51953,-2.814103 -19.44593,-5.101461 -29.3744,-6.717565 -13.70525,-2.256563 -27.72458,-3.292175 -41.67052,-3.132045 z" />
  </g>
</svg>
